<?xml version="1.0"?>
<svg xmlns:rdf="http://www.w3.org/1999/02/22-rdf-syntax-ns#" xmlns="http://www.w3.org/2000/svg" xmlns:cc="http://web.resource.org/cc/" xmlns:xlink="http://www.w3.org/1999/xlink" xmlns:dc="http://purl.org/dc/elements/1.1/" xmlns:svg="http://www.w3.org/2000/svg" id="svg2" viewBox="0 0 692.72 190.32" version="1.1">
  <defs id="defs4">
    <filter id="filter3626" color-interpolation-filters="sRGB">
      <feGaussianBlur id="feGaussianBlur3628" stdDeviation="2.7934325"/>
    </filter>
    <filter id="filter3691" color-interpolation-filters="sRGB">
      <feGaussianBlur id="feGaussianBlur3693" stdDeviation="1.3315217"/>
    </filter>
    <filter id="filter3745" color-interpolation-filters="sRGB">
      <feGaussianBlur id="feGaussianBlur3747" stdDeviation="0.3558036"/>
    </filter>
    <linearGradient id="linearGradient3765" y2="189.62" gradientUnits="userSpaceOnUse" x2="830.98" gradientTransform="translate(-129.29 225.29)" y1="197.57" x1="836.43">
      <stop id="stop3699" stop-color="#434343" offset="0"/>
      <stop id="stop3701" stop-color="#434343" stop-opacity="0" offset="1"/>
    </linearGradient>
    <linearGradient id="linearGradient3768" y2="187.21" gradientUnits="userSpaceOnUse" x2="819.79" gradientTransform="translate(-129.29 225.29)" y1="172.93" x1="810.36">
      <stop id="stop3669" stop-color="#d0d0d0" stop-opacity="0" offset="0"/>
      <stop id="stop3675" stop-color="#fbfbfb" stop-opacity=".91304" offset=".49761"/>
      <stop id="stop3677" stop-color="#fff" stop-opacity=".23478" offset=".87673"/>
      <stop id="stop3671" stop-color="#d9d9d9" stop-opacity="0" offset="1"/>
    </linearGradient>
    <linearGradient id="linearGradient3781" y2="448.28" gradientUnits="userSpaceOnUse" x2="388.69" gradientTransform="translate(-1.4286)" y1="271.38" x1="48.817">
      <stop id="stop3650" stop-color="#f2f2f2" offset="0"/>
      <stop id="stop3652" stop-color="#ededed" stop-opacity=".6087" offset="1"/>
    </linearGradient>
  </defs>
  <g id="layer1" transform="translate(-40.68 -268.67)">
    <path id="rect3608" opacity=".60619" filter="url(#filter3626)" d="m72.821 275.41c-3.0511 0.0749-6.0947 0.73415-8.8637 2.0277-3.8017 1.6053-7.2406 4.125-9.7814 7.3902-2.1864 2.7365-4.0116 5.7966-5.0828 9.145-0.75596 2.0121-1.1867 4.1281-1.4058 6.2616-0.39743 4.0355-0.24194 8.0981-0.30375 12.147v112.93c0.313 2.9404 0.86286 5.8673 1.7978 8.6762 0.73837 2.0848 1.6759 4.0999 2.8738 5.9612 1.8784 2.923 4.2522 5.5462 7.0898 7.5666 3.0458 2.1986 6.5549 3.8104 10.28 4.402 2.7616 0.41804 5.569 0.33829 8.3544 0.36283 11.678-0.0369 23.355-0.12453 35.033-0.17965 19.121-0.1291 38.243-0.20195 57.364-0.33961 34.35-0.22571 68.701-0.41729 103.05-0.66541 28.817-0.21698 57.635-0.42205 86.451-0.74857 16.149-0.23389 32.3-0.3325 48.448-0.67832 13.553-0.26011 27.107-0.48462 40.659-0.76806 5.5621-0.16727 11.127-0.20727 16.691-0.28728 8.7068-0.073 17.414-0.14147 26.121-0.11435 10.926 0.0312 21.851 0.0789 32.777 0.15216 13.856 0.14388 27.713 0.22809 41.57 0.16988 3.5216 0.0195 7.0425-0.0447 10.564-0.072 5.4196-0.0148 10.837-0.21143 16.256-0.32114 9.5842-0.19312 19.164-0.5534 28.742-0.93403 16.213-0.64602 32.41-1.6309 48.604-2.6374 8.6438-0.58422 17.302-0.95049 25.94-1.6183 2.2546-0.32524 4.4669-0.92424 6.6143-1.6766 1.7259-0.72059 3.3181-1.7278 4.8968-2.7208 2.1762-1.5354 4.157-3.3576 5.8854-5.3823 1.1893-1.4501 2.2297-3.018 3.2534-4.5867 1.0868-1.99 1.9252-4.1125 2.6214-6.2672 0.66379-2.2196 1.3773-4.4624 1.4213-6.7992 0.1332-3.6243 0.30595-7.2464 0.4147-10.872 0.31414-8.4104 0.7248-16.817 1.1808-25.221 0.58083-9.4266 1.1666-18.853 1.755-28.279 0.61516-10.591 1.4068-21.172 1.8161-31.773 0.26112-5.8134 0.61697-11.624 0.78626-17.441-0.1019-2.5756-0.44213-5.1582-1.1386-7.6427-0.9021-2.7453-2.1339-5.3946-3.7655-7.7839-1.2278-1.8669-2.7136-3.5487-4.3711-5.0445-1.8458-1.5897-3.8772-2.9771-6.0788-4.0281-2.6385-1.2088-5.477-2.0189-8.3805-2.2078-3.6362-0.20587-7.2814-0.0628-10.922-0.11278-26.007-0.0525-52.014-0.0136-78.021-0.0256h-540.57l-0.625 0.0312z" fill="#434343"/>
    <path id="rect3606" fill="#b3b3b3" d="m71.884 271.81c-6.4539 0.8329-12.425 4.291-16.695 9.1536-3.9256 4.3879-6.4538 10.057-6.8431 15.951-0.47557 4.9042-0.17467 9.8377-0.31394 14.755-0.15651 18.263 0.05141 36.527 0.0083 54.791-0.01497 9.4782-0.09922 18.956-0.01094 28.434 0.08433 10.283 0.12413 20.571 0.6022 30.844 0.20011 4.7267 2.1872 9.2146 4.9064 13.023 2.7945 3.7719 6.5483 6.8408 10.838 8.7545 4.1038 1.7681 8.622 2.1535 13.04 2.2744 8.9458 0.22413 17.896 0.26073 26.843 0.14227 11.995-0.0966 23.991 0.0955 35.987 0.0227 58.302-0.10015 116.6-0.20693 174.91-0.36065 55.276-0.13296 110.55-0.25576 165.83-0.45652 31.019-0.10105 62.038-0.25147 93.056-0.58129 10.041-0.15487 20.083-0.17025 30.124-0.35326 4.1951-0.0742 8.391-0.15284 12.577-0.46734 3.7421-0.23176 7.4682-0.70571 11.146-1.4321 6.7185-1.2622 13.401-2.7207 20.049-4.3082 6.6428-1.6518 13.342-3.0854 19.911-5.0247 7.0293-1.9597 14.055-3.9692 21.224-5.3614 4.7513-1.0287 9.5315-2.0598 14.094-3.7591 2.3804-0.93438 4.6601-2.1598 6.6135-3.8247 3.379-2.6274 5.9683-6.1798 7.8164-10.017 1.1938-2.472 1.8162-5.1807 2.183-7.8903 0.42873-4.8144 0.54091-9.6511 0.9857-14.465 0.78968-7.9903 1.8891-15.947 2.9041-23.911 1.2674-9.5262 2.3917-19.075 3.2338-28.648 0.74496-9.3266 1.0189-18.687 0.97703-28.042-0.11389-5.4942-0.21688-11.001-0.82915-16.466-0.35893-3.5975-1.5904-7.0865-3.5143-10.144-2.0358-3.2825-4.7763-6.1506-7.9924-8.2926-3.7485-2.5202-8.1593-4.0298-12.669-4.3051-5.8023-0.31407-11.618 0.12786-17.426-0.0368-80.115-0.13344-160.23-0.0836-240.34-0.0927h-372.31c-0.30208 0.0312-0.60417 0.0625-0.90625 0.0937z"/>
    <path id="rect2849" fill="url(#linearGradient3781)" d="m698.35 271.34c-126.93 0.055-253.85 0.0227-380.78 0.0312-81.823 0.009-163.65-0.0237-245.47 0.0312-6.7613 0.59063-13.067 4.1331-17.538 9.1707-2.2192 2.4825-4.0021 5.3682-5.1893 8.4819-1.2663 3.2248-1.671 6.7118-1.8071 10.152-0.03227 5.975-0.11388 11.951-0.15653 17.926-0.04359 12.513-0.07102 25.026-0.02165 37.539 0.03017 14.367 0.03082 28.735 0.0048 43.102 0.0626 9.3705 0.25296 18.745 0.86461 28.097 0.1643 2.1107 0.69508 4.1863 1.6353 6.0865 2.3443 5.0748 6.1061 9.5738 10.938 12.437 2.8537 1.7365 6.1137 2.6826 9.4081 3.1123 5.304 0.75531 10.677 0.73326 16.023 0.77049 10.518 0.11827 21.037-0.005 31.556-0.0156 12.125-0.0571 24.25 0.0634 36.374-0.0127 30.38-0.15967 60.76-0.14055 91.14-0.24911 32.789-0.1074 65.578-0.0969 98.367-0.22474 29.139-0.0779 58.277-0.12456 87.416-0.25567 28.758-0.0938 57.517-0.10051 86.275-0.20482 26.108-0.15594 52.217-0.32835 78.324-0.65917 7.2811-0.15492 14.57-0.22434 21.832-0.83405 4.1358-0.33007 8.2497-0.93002 12.326-1.6975 5.972-1.213 11.922-2.5382 17.856-3.9256 6.2956-1.4728 12.557-3.0842 18.773-4.8659 7.1348-1.9969 14.29-3.9437 21.56-5.3939 3.887-0.7977 7.814-1.4959 11.566-2.8197 2.499-0.89938 4.919-2.0435 7.0959-3.578 2.7382-1.8108 5.1607-4.0982 7.1409-6.72 2.3413-3.1225 3.9094-6.8036 4.6306-10.635 0.529-2.5564 0.70652-5.165 0.75654-7.7705 0.17956-4.2609 0.66104-8.4992 1.1162-12.738 0.79141-7.2949 1.855-14.558 2.7767-21.837 0.72285-5.6133 1.4531-11.226 2.0571-16.853 0.51838-4.661 0.95882-9.3312 1.2439-14.013 0.45456-7.787 0.65595-15.591 0.52823-23.391-0.0315-3.7081-0.17242-7.4159-0.37059-11.118-0.38307-4.9002-1.2112-9.9423-3.8266-14.196-2.4732-4.146-6.1733-7.5093-10.432-9.7606-3.15-1.7302-6.6626-2.8316-10.256-3.073-1.2369-0.15402-2.4922-0.15574-3.7355-0.0957z"/>
    <path id="path3665" opacity=".65487" filter="url(#filter3691)" d="m614.29 445.01 106.43-68.571-5.7143 30.714-14.286 14.286-66.429 20.714-20 2.8572z" fill="url(#linearGradient3768)"/>
    <path id="path3695" opacity=".18142" filter="url(#filter3745)" d="m678.21 432.24s10.341-2.4734 16.786-3.75c3.4174-0.67698 6.888-2.0069 9.9107-3.8393 3.153-1.9113 5.424-3.501 8.0357-6.6964 1.8994-2.3239 3.5089-4.9542 4.5536-7.7679 0.97936-2.6378 1.5179-8.3036 1.5179-8.3036l-40.804 30.357z" fill="url(#linearGradient3765)"/>
    <g id="text3784" fill="#d40000" transform="scale(.97205 1.0288)">
      <path id="path3795" d="m73.708 300.14h45.998c9.0674 0.0001 16.392 1.2304 21.974 3.6908 5.5816 2.4606 10.195 5.9919 13.84 10.594 3.6451 4.6021 6.2879 9.956 7.9283 16.062 1.6402 6.1058 2.4604 12.576 2.4605 19.411-0.0001 10.708-1.219 19.012-3.6566 24.913-2.4378 5.9007-5.821 10.844-10.15 14.831-4.3288 3.9869-8.9764 6.6411-13.943 7.9625-6.7892 1.8226-12.941 2.7339-18.454 2.7339h-45.998zm30.961 22.691v54.746h7.5866c6.4702 0.00003 11.072-0.71762 13.806-2.1529 2.7338-1.4353 4.8754-3.9413 6.4247-7.5182 1.5491-3.5768 2.3237-9.375 2.3238-17.394-0.00007-10.617-1.7315-17.884-5.1944-21.803-3.463-3.9185-9.2042-5.8778-17.224-5.8779z"/>
      <path id="path3797" d="m243.76 383.79h-35.267l-4.8527 16.54h-31.645l37.659-100.2h33.764l37.659 100.2h-32.397zm-6.493-21.666-11.072-36.019-11.004 36.019z"/>
      <path id="path3799" d="m291.12 300.14h28.911l37.728 55.43v-55.43h29.184v100.2h-29.184l-37.523-55.02v55.02h-29.116z"/>
      <path id="path3801" d="m458.03 364.04v-20.846h47.843v42.717c-9.1587 6.2424-17.258 10.491-24.298 12.747-7.0399 2.2555-15.39 3.3832-25.049 3.3832-11.893 0-21.586-2.0276-29.082-6.0829-7.4955-4.0553-13.305-10.093-17.429-18.112-4.1236-8.0194-6.1854-17.224-6.1854-27.612-0.00001-10.936 2.2555-20.447 6.7664-28.535 4.5109-8.0877 11.118-14.228 19.821-18.42 6.7891-3.235 15.925-4.8526 27.407-4.8527 11.072 0.0001 19.354 1.0025 24.844 3.0073 5.4905 2.005 10.047 5.1148 13.669 9.3294 3.6223 4.2148 6.3448 9.5573 8.1675 16.027l-29.868 5.3311c-1.2303-3.7818-3.3149-6.6752-6.2538-8.6801-2.939-2.0048-6.6867-3.0072-11.243-3.0073-6.7892 0.00008-12.2 2.3581-16.233 7.074-4.0325 4.716-6.0488 12.177-6.0488 22.384-0.00004 10.844 2.039 18.591 6.1171 23.238 4.078 4.6476 9.7622 6.9715 17.053 6.9714 3.4629 0.00002 6.7663-0.50119 9.9104-1.5036 3.1439-1.0024 6.7435-2.7111 10.799-5.1261v-9.432z"/>
      <path id="path3803" d="m524.31 400.34c28.177-0.0208 56.354-0.0417 84.531-0.0625l-0.0312-22.625h-53.469v-19.781h48.188v-20.438h-48.188v-15.906h51.938v-21.406h-82.969v100.22z"/>
      <path id="path3805" d="m626.16 399.34c10.833 0.22917 21.667 0.45833 32.5 0.6875-0.46875-13.688-0.9375-27.375-1.4062-41.062 1.1188 0.006 2.246-0.0388 3.3553 0.125 0.66088 0.0235 1.3028 0.19969 1.947 0.33683 0.87178 0.13265 1.6696 0.52023 2.479 0.85067 0.9328 0.4433 1.8611 0.92403 2.677 1.5625 0.68442 0.5475 1.1534 1.3062 1.7263 1.9604 0.52151 0.63583 0.76271 1.4516 1.2609 2.1024 0.25318 0.35374 0.56531 0.66766 0.76595 1.063 0.55762 1.0264 1.1336 2.0454 1.6433 3.0965 0.70523 1.2756 1.5064 2.5024 2.0859 3.8433 0.36467 0.7245 0.81466 1.4011 1.1583 2.1371 0.20998 0.41834 0.4025 0.84766 0.71365 1.2036 0.4394 0.69714 0.94787 1.3772 1.1562 2.1875 0.42572 0.80861 0.81999 1.632 1.1875 2.4688 0.24881 0.45961 0.56672 0.87728 0.84256 1.3176 0.36539 0.9092 0.88018 1.7442 1.3505 2.5997 0.19408 0.43789 0.30702 0.91449 0.60781 1.2996 0.51356 0.72188 0.93128 1.5033 1.304 2.3053 0.52546 1.0574 1.0205 2.1315 1.6327 3.1429 0.28125 0.485 0.54185 0.98061 0.76876 1.4925 0.37943 0.60762 0.62893 1.2861 1.0416 1.8752 0.23496 0.43538 0.57778 0.82475 0.70216 1.311 0.23662 0.46888 0.56925 0.88048 0.8125 1.3438 0.12889 0.36736 0.44955 0.63642 0.81619 0.75185 0.37907 0.22745 0.79711 0.0753 1.1838-0.0331 0.53672-0.14267 1.0364-0.40863 1.5938-0.46875 0.40027 0.13804 0.83751-0.009 1.2361-0.10316 0.53306-0.12712 1.0368-0.36294 1.5865-0.41135 0.40576 0.0171 0.82467-0.0944 1.2194-0.21682 0.57253-0.21901 1.2011-0.20249 1.7706-0.42492 1.1268-0.28453 2.2682-0.53054 3.3485-0.9682 0.61897-0.24133 1.2234-0.53865 1.8904-0.62333 0.7186-0.11932 1.3993-0.38644 2.1113-0.54071 0.9796-0.22561 1.937-0.53789 2.9064-0.80058 0.50453-0.23159 1.0762-0.2799 1.5559-0.56718 0.79941-0.24243 1.5998-0.48001 2.3817-0.77514 1.1839-0.39497 2.3616-0.81811 3.5662-1.1444 0.44132-0.0443 0.83284-0.24219 1.2393-0.39287 0.37935-0.14986 0.87916-0.39161 0.84417-0.87514-0.13348-0.68854-0.59211-1.2511-0.94286-1.8432-0.37555-0.63657-0.8255-1.2233-1.2207-1.8464-0.5464-0.91077-1.1352-1.7996-1.6006-2.7545-0.25251-0.47586-0.59707-0.89405-0.84717-1.3731-0.3675-0.66175-0.75106-1.3139-1.1896-1.931-0.25358-0.32294-0.45652-0.673-0.60227-1.0575-0.31295-0.71971-0.84623-1.3091-1.1975-2.0078-0.73698-1.3053-1.4015-2.6512-2.1653-3.9421-0.55021-0.90664-0.99966-1.8666-1.4217-2.8382-0.40018-0.76182-0.72454-1.5604-1-2.375-0.32655-0.61225-0.76203-1.1647-0.99724-1.8229-0.35987-0.79282-0.66624-1.6105-1.0937-2.3704-0.21755-0.61028-0.54236-1.1681-0.87674-1.7201-0.27032-0.56322-0.70764-1.0084-1.126-1.4616-0.2726-0.32547-0.5137-0.68278-0.86123-0.9307-0.40416-0.42954-0.7127-0.93288-1.1079-1.371-0.45335-0.55685-0.93926-1.0875-1.4372-1.6045-0.64273-0.44746-1.2581-0.94628-1.9835-1.2574-0.66868-0.4358-1.4192-0.73554-2.1964-0.91606-0.82833-0.21287-1.658-0.42068-2.4763-0.6703-0.44344 0.021-0.48848-0.63345-0.15625-0.8125 0.61915-0.25931 1.2919-0.36073 1.9015-0.64896 1.0645-0.39925 2.0517-0.97332 3.1159-1.3739 1.2519-0.52851 2.5138-1.0392 3.704-1.6997 0.8214-0.45593 1.6801-0.84093 2.4738-1.3463 0.77143-0.44232 1.513-0.93168 2.2436-1.4374 0.70559-0.43171 1.4358-0.83253 2.0925-1.3375 0.51647-0.47541 1.1095-0.86354 1.6002-1.3698 0.63142-0.61331 1.2662-1.2232 1.9494-1.7798 0.79063-0.88553 1.5957-1.7635 2.3386-2.6908 0.51237-0.62127 0.82378-1.3731 1.2717-2.0374 0.33775-0.57719 0.52724-1.225 0.74517-1.8507 0.26791-0.55124 0.48096-1.1252 0.59394-1.7289 0.15486-0.83391 0.40145-1.6495 0.56356-2.4801 0.10408-0.63412 0.24557-1.2622 0.28125-1.9062 0.11242-0.66883 0.17527-1.3462 0.20706-2.0217 0.0677-0.43034 0.0394-0.86898 0.0689-1.3021-0.079-1.0278-0.0653-2.0623-0.19805-3.0851-0.0356-0.61318-0.20872-1.2031-0.29668-1.8098-0.33025-1.3692-0.61108-2.7553-1.1188-4.0738-0.32102-0.94336-0.71752-1.8598-1.102-2.7782-0.45451-0.91524-0.84743-1.8653-1.4318-2.709-0.82579-1.3111-1.7671-2.549-2.8371-3.6707-0.50159-0.59112-1.0954-1.0879-1.7017-1.5668-1.0694-0.89918-2.1653-1.7735-3.3733-2.4817-0.71086-0.45818-1.4818-0.81183-2.2219-1.2184-1.0783-0.46737-2.1603-0.9396-3.2951-1.254-0.78133-0.23051-1.5727-0.42225-2.3754-0.56077-0.8064-0.17799-1.6067-0.38477-2.4282-0.48187-1.2931-0.26675-2.5961-0.48938-3.914-0.58743-1.3352-0.10756-2.6653-0.29913-4.005-0.33609-1.6197-0.0188-3.2378-0.11961-4.8578-0.13999-4.2411-0.084-8.4834-0.0821-12.724-0.17251-1.4722 0.007-2.9436-0.0519-4.416-0.0312h-38.104l0.1875 99.219zm31.781-79c4.9165 0.055 9.8333 0.0226 14.75 0.0312 1.7182 0.22317 3.4471 0.39591 5.1442 0.75203 1.1516 0.23868 2.2528 0.68333 3.2935 1.2247 0.7347 0.42901 1.4105 0.97343 1.9685 1.617 0.56632 0.7151 1.1554 1.4498 1.4062 2.3438 0.2338 0.63505 0.41702 1.2912 0.56818 1.9488 0.0951 1.0672 0.15242 2.1365 0.18182 3.2075-0.13072 0.40999-0.16056 0.85346-0.31933 1.251-0.1629 0.38897-0.2508 0.81681-0.46377 1.1902-0.42568 0.82638-0.73832 1.7377-1.4136 2.4051-0.36999 0.37044-0.69035 0.79573-1.1432 1.0739-0.35775 0.30588-0.79174 0.51005-1.1288 0.83836-0.44934 0.27802-0.90307 0.5686-1.4217 0.69458-0.65519 0.21503-1.3444 0.29893-1.9939 0.53364-1.0054 0.26085-2.0121 0.5213-3.043 0.66263-1.0316 0.17583-2.0748 0.29387-3.1186 0.36021-2.3428 0.058-4.6836 0.20889-7.028 0.17796-2.2671 0.003-4.5339 0.0479-6.8011 0.0312-0.49175-0.16211-0.31187-0.74168-0.30458-1.1281 0.0595-1.9314 0.004-3.8643-0.008-5.7962v-13.138c0.15439-0.31061 0.58129-0.2711 0.875-0.28125z"/>
    </g>
    <path id="path3788" opacity=".32743" d="m698.35 271.34c-126.93 0.055-253.85 0.0227-380.78 0.0312-81.823 0.009-163.65-0.0237-245.47 0.0312-6.7613 0.59063-13.067 4.1331-17.538 9.1707-2.2192 2.4825-4.0021 5.3682-5.1893 8.4819-1.2663 3.2248-1.671 6.7118-1.8071 10.152-0.03227 5.975-0.11388 11.951-0.15653 17.926-0.04359 12.513-0.07102 25.026-0.02165 37.539 0.03017 14.367 0.03082 28.735 0.0048 43.102 0.0626 9.3705 0.25296 18.745 0.86461 28.097 0.1643 2.1107 0.69508 4.1863 1.6353 6.0865 2.3443 5.0748 6.1061 9.5738 10.938 12.437 2.8537 1.7365 6.1137 2.6826 9.4081 3.1123 5.304 0.75531 10.677 0.73326 16.023 0.77049 10.518 0.11827 21.037-0.005 31.556-0.0156 12.125-0.0571 24.25 0.0634 36.374-0.0127 30.38-0.15967 60.76-0.14055 91.14-0.24911 32.789-0.1074 65.578-0.0969 98.367-0.22474 29.139-0.0779 58.277-0.12456 87.416-0.25567 28.758-0.0938 57.517-0.10051 86.275-0.20482 26.108-0.15594 52.217-0.32835 78.324-0.65917 7.2811-0.15492 14.57-0.22434 21.832-0.83405 4.1358-0.33007 8.2497-0.93002 12.326-1.6975 5.972-1.213 11.922-2.5382 17.856-3.9256 6.2956-1.4728 12.557-3.0842 18.773-4.8659 7.1348-1.9969 14.29-3.9437 21.56-5.3939 3.887-0.7977 7.814-1.4959 11.566-2.8197 2.499-0.89938 4.919-2.0435 7.0959-3.578 2.7382-1.8108 5.1607-4.0982 7.1409-6.72 2.3413-3.1225 3.9094-6.8036 4.6306-10.635 0.529-2.5564 0.70652-5.165 0.75654-7.7705 0.17956-4.2609 0.66104-8.4992 1.1162-12.738 0.79141-7.2949 1.855-14.558 2.7767-21.837 0.72285-5.6133 1.4531-11.226 2.0571-16.853 0.51838-4.661 0.95882-9.3312 1.2439-14.013 0.45456-7.787 0.65595-15.591 0.52823-23.391-0.0315-3.7081-0.17242-7.4159-0.37059-11.118-0.38307-4.9002-1.2112-9.9423-3.8266-14.196-2.4732-4.146-6.1733-7.5093-10.432-9.7606-3.15-1.7302-6.6626-2.8316-10.256-3.073-1.2369-0.15402-2.4922-0.15574-3.7355-0.0957z" fill="url(#linearGradient3781)"/>
  </g>
  <metadata>
    <rdf:RDF>
      <cc:Work>
        <dc:format>image/svg+xml</dc:format>
        <dc:type rdf:resource="http://purl.org/dc/dcmitype/StillImage"/>
        <cc:license rdf:resource="http://creativecommons.org/licenses/publicdomain/"/>
        <dc:publisher>
          <cc:Agent rdf:about="http://openclipart.org/">
            <dc:title>Openclipart</dc:title>
          </cc:Agent>
        </dc:publisher>
        <dc:title>Danger label</dc:title>
        <dc:date>2009-11-28T06:42:26</dc:date>
        <dc:description>a sticker that says "danger"</dc:description>
        <dc:source>http://openclipart.org/detail/28509/danger-label-by-dogface_jim</dc:source>
        <dc:creator>
          <cc:Agent>
            <dc:title>dogface_jim</dc:title>
          </cc:Agent>
        </dc:creator>
        <dc:subject>
          <rdf:Bag>
            <rdf:li>clip art</rdf:li>
            <rdf:li>clipart</rdf:li>
            <rdf:li>danger</rdf:li>
            <rdf:li>how i did it</rdf:li>
            <rdf:li>image</rdf:li>
            <rdf:li>label</rdf:li>
            <rdf:li>media</rdf:li>
            <rdf:li>public domain</rdf:li>
            <rdf:li>sign</rdf:li>
            <rdf:li>sticker</rdf:li>
            <rdf:li>svg</rdf:li>
            <rdf:li>text</rdf:li>
            <rdf:li>warning</rdf:li>
          </rdf:Bag>
        </dc:subject>
      </cc:Work>
      <cc:License rdf:about="http://creativecommons.org/licenses/publicdomain/">
        <cc:permits rdf:resource="http://creativecommons.org/ns#Reproduction"/>
        <cc:permits rdf:resource="http://creativecommons.org/ns#Distribution"/>
        <cc:permits rdf:resource="http://creativecommons.org/ns#DerivativeWorks"/>
      </cc:License>
    </rdf:RDF>
  </metadata>
</svg>
